<svg width="640" height="480" viewBox="0 0 59 190" version="1.1" xmlns="http://www.w3.org/2000/svg">
                                            <g stroke="none" stroke-width="1" fill="none" fill-rule="evenodd">
                                                <g transform="translate(-337.000000, -400.000000)" stroke="#E4E4E4">
                                                    <path d="M395,504.228139 C395,503.518157 394.964272,502.838473 394.890775,502.210296 C394.782571,501.26803 394.674367,500.745895 394.594746,500.38333 C394.517165,500.014705 394.480417,499.860185 394.479396,499.516808 C394.479396,499.426924 394.482458,499.323911 394.489604,499.20171 L394.495729,498.956296 C394.485521,497.811034 394.113953,497.014198 394.114973,494.608541 L394.115994,494.47422 L394.115994,494.47321 L394.115994,494.407564 C394.114973,492.949223 393.864879,489.796217 393.573954,486.369519 C393.284049,482.94686 392.955354,479.26768 392.79611,476.834754 C392.632784,474.336184 392.235695,472.494068 391.862086,470.857979 C391.486434,469.21987 391.141407,467.796876 391.048514,466.070903 C390.95256,464.339881 390.421748,461.574688 389.917477,458.276251 C389.412185,454.983874 388.932413,451.179462 388.932413,447.455844 C388.932413,446.947848 388.940579,446.441873 388.959974,445.938927 C388.965078,445.816725 388.96712,445.695533 388.96712,445.576361 C388.971203,442.663718 387.607425,440.695362 386.25998,439.574338 C385.130984,438.628032 383.909096,438.145284 382.718852,437.835235 C381.526567,437.525186 380.357761,437.376727 379.284908,437.108085 C378.340676,436.873781 377.550583,436.507175 376.826841,436.14562 C376.102079,435.787094 375.448772,435.426549 374.744426,435.239711 C374.475958,435.169016 374.07989,435.029645 373.722613,434.860987 C373.365336,434.697378 373.039703,434.483272 372.935583,434.357031 C372.706925,434.095459 372.489497,433.878323 372.216945,433.264285 C371.96481,432.685594 371.691237,431.750398 371.461559,430.207222 C371.770859,429.912322 372.060764,429.601263 372.338419,429.279095 C372.409875,429.196281 372.476226,429.114476 372.546661,429.029642 C372.861065,428.646878 373.160157,428.258054 373.423521,427.864181 C373.828776,427.256202 374.176866,426.678521 374.480041,426.1069 C374.783216,425.534268 375.039435,424.969717 375.259926,424.389006 C375.422232,423.961805 375.737656,423.59823 376.153119,423.318479 L376.156181,423.315449 L376.160264,423.313429 L376.162306,423.311409 C376.424649,423.133661 376.633912,422.979142 376.810509,422.816543 C377.075915,422.577189 377.267824,422.290368 377.367861,421.979309 C377.419922,421.82277 377.454628,421.66724 377.485252,421.497572 C377.515876,421.327903 377.539354,421.146116 377.570999,420.93706 C377.575082,420.895653 377.61183,420.743153 377.660828,420.557326 C377.736367,420.268485 377.841509,419.888751 377.929297,419.475689 C377.973191,419.268653 378.011981,419.052527 378.041584,418.836402 C378.069145,418.620277 378.086499,418.402131 378.087519,418.190046 C378.085478,417.887066 378.044646,417.573988 377.917047,417.287167 C377.847633,417.131638 377.758824,416.980148 377.618976,416.846837 C377.40563,416.644851 377.158599,416.551937 376.940149,416.50851 C376.826841,416.486291 376.719658,416.473162 376.630849,416.476192 L376.622683,416.476192 L376.619621,416.476192 C376.622683,416.341871 376.627787,416.20755 376.627787,416.074239 C376.627787,415.230946 376.559394,414.388663 376.415462,413.55749 C376.327674,413.058583 376.21947,412.562707 376.063289,412.0739 C376.062268,412.06986 376.060227,412.065821 376.059206,412.061781 C375.952023,411.727494 375.840756,411.399266 375.726428,411.074068 C375.700908,410.999333 375.673347,410.924598 375.646806,410.850873 C375.391608,410.144931 375.107828,409.466257 374.767904,408.82798 C374.756675,408.808791 374.746468,408.788593 374.73626,408.770414 C374.343255,408.044273 373.876753,407.370649 373.281631,406.783878 C372.576264,406.086016 371.700424,405.529543 370.607156,405.142739 C370.590824,404.744826 370.538763,404.348933 370.428518,403.968189 C370.259066,403.387478 369.982432,402.851205 369.622092,402.402795 C369.262773,401.954385 368.817708,401.59182 368.312416,401.354486 C368.013324,401.215115 367.709128,401.127251 367.405953,401.073725 C367.103798,401.020199 366.803686,401.00101 366.510718,401.00101 L366.509698,401.00101 L366.506635,401.00101 L366.503573,401.00101 L366.49949,401.00101 L366.493365,401 C366.491323,401 366.490302,401.00101 366.488261,401.00101 C365.974803,401.00101 365.438887,401.068675 364.912158,401.268642 C364.83764,401.29692 364.762102,401.320148 364.687584,401.354486 C364.433407,401.472648 364.196583,401.622118 363.977113,401.798856 C363.320744,402.32907 362.825659,403.095608 362.571482,403.968189 C362.461237,404.348933 362.409176,404.744826 362.391823,405.142739 C361.299576,405.529543 360.423736,406.086016 359.717348,406.783878 C359.122226,407.370649 358.656745,408.044273 358.26374,408.770414 C358.253532,408.788593 358.243325,408.808791 358.233117,408.82798 C357.892172,409.466257 357.607371,410.145941 357.352173,410.852893 C357.326653,410.924598 357.300113,410.998323 357.274593,411.070028 C357.159244,411.400276 357.045936,411.732543 356.937732,412.07087 C356.937732,412.07188 356.936711,412.07289 356.936711,412.0739 C356.519207,413.374692 356.372213,414.724971 356.372213,416.073229 L356.372213,416.074239 C356.372213,416.20755 356.378338,416.341871 356.380379,416.476192 L356.369151,416.476192 C356.11089,416.469122 355.706657,416.540828 355.380003,416.846837 C355.331005,416.894304 355.300381,416.94682 355.260571,416.998327 C355.164616,417.120528 355.090098,417.2498 355.0411,417.38614 C354.947187,417.645693 354.914522,417.920394 354.91146,418.190046 C354.912481,418.473837 354.944125,418.766717 354.991082,419.052527 C355.037017,419.338338 355.100306,419.618089 355.161554,419.875622 C355.224843,420.133154 355.288132,420.367458 355.338151,420.557326 C355.38817,420.743153 355.424918,420.895653 355.429001,420.93706 C355.444313,421.035023 355.457583,421.122887 355.469833,421.211761 C355.53006,421.621793 355.586203,421.949011 355.760759,422.281279 C355.866921,422.478215 356.011873,422.654953 356.189491,422.816543 C356.366088,422.979142 356.575351,423.133661 356.837694,423.311409 L356.84586,423.317469 C357.202117,423.556822 357.460377,423.866871 357.635953,424.216308 C357.667598,424.275894 357.715575,424.32639 357.740074,424.389006 C357.960565,424.969717 358.216784,425.534268 358.519959,426.1069 C358.822114,426.678521 359.172245,427.256202 359.576479,427.864181 C359.839843,428.258054 360.137914,428.646878 360.453339,429.029642 C360.522753,429.114476 360.590125,429.195271 360.661581,429.278085 C360.939236,429.600253 361.229141,429.912322 361.538441,430.207222 C361.308763,431.750398 361.03417,432.685594 360.782034,433.265295 C360.510503,433.878323 360.293075,434.095459 360.064417,434.357031 C359.960297,434.483272 359.634664,434.697378 359.278408,434.860987 C358.92011,435.029645 358.523022,435.169016 358.255574,435.239711 C357.551228,435.426549 356.897921,435.787094 356.173159,436.14562 C355.449417,436.507175 354.659324,436.873781 353.715092,437.108085 C352.642239,437.376727 351.473433,437.525186 350.281148,437.835235 C349.090904,438.145284 347.869016,438.628032 346.739,439.574338 C345.392575,440.695362 344.028797,442.663718 344.03288,445.576361 C344.03288,445.695533 344.034922,445.816725 344.040026,445.938927 C344.059421,446.441873 344.067587,446.947848 344.067587,447.455844 C344.067587,451.179462 343.587815,454.983874 343.081502,458.277261 C342.577231,461.574688 342.04744,464.339881 341.951486,466.070903 C341.858593,467.796876 341.512545,469.21987 341.137914,470.857979 C340.764305,472.494068 340.367216,474.336184 340.20389,476.834754 C340.044646,479.26768 339.715951,482.94686 339.425026,486.369519 C339.135121,489.796217 338.885027,492.949223 338.884006,494.407564 L338.884006,494.47422 L338.885027,494.609551 C338.886047,497.014198 338.514479,497.811034 338.504271,498.956296 L338.510396,499.20171 C338.517542,499.322901 338.520604,499.425914 338.520604,499.516808 C338.519583,499.860185 338.482835,500.014705 338.404234,500.38333 C338.326653,500.745895 338.217429,501.26803 338.108204,502.210296 C338.034707,502.838473 338,503.518157 338,504.227129 C338,505.976331 338.213346,507.90732 338.627787,509.68177 C338.998334,511.290591 339.696556,512.419694 340.833718,513.498301 C340.912319,513.571017 341.006232,513.646761 341.141998,513.748764 C341.542148,514.046694 342.238328,514.510253 342.980444,514.84858 C343.149895,514.926345 343.329555,514.962702 343.484715,514.961692 C343.649062,514.961692 343.775641,514.928365 343.856283,514.910186 L344.00736,514.884938 L344.029818,514.885947 C344.098211,514.893017 344.22581,514.924325 344.370762,514.961692 C344.519798,514.99805 344.685166,515.042487 344.894429,515.044507 C344.998549,515.044507 345.121044,515.031378 345.250685,514.978861 C345.381346,514.927355 345.514049,514.825352 345.598775,514.69709 C345.69575,514.5557 345.735561,514.388051 345.73352,514.245651 C345.731478,514.038615 345.672272,513.870966 345.597754,513.713417 C345.33439,513.175123 344.822973,512.63481 344.331972,512.100556 C344.088003,511.837974 343.849138,511.584481 343.660291,511.368356 C343.471445,511.15526 343.331596,510.962363 343.296889,510.889648 C343.260141,510.815923 343.230538,510.736138 343.201956,510.654334 C343.227475,510.705841 343.248912,510.758357 343.281577,510.808854 C343.488798,511.126982 343.82668,511.364316 344.201311,511.361286 C344.412615,511.361286 344.59942,511.290591 344.746414,511.199697 C344.969967,511.061336 345.127169,510.875509 345.250685,510.679582 C345.37318,510.481636 345.459947,510.26955 345.499758,510.045345 C345.684522,508.977848 345.771289,508.367849 345.851931,507.90732 C345.932574,507.446791 346.003009,507.138762 346.169398,506.607538 C346.451136,505.702639 346.607317,504.889644 346.607317,504.123106 C346.609359,503.167711 346.356203,502.287051 345.846827,501.460927 C345.426261,500.774173 345.099608,500.245979 344.879117,499.716775 C344.658626,499.186561 344.530006,498.648267 344.507548,497.877689 C344.492237,497.346465 344.456509,496.993999 344.426906,496.708188 C344.397303,496.421368 344.373825,496.212312 344.373825,495.912362 C344.373825,495.558886 344.407511,495.06806 344.515715,494.214667 C344.648418,493.14717 345.259872,491.262637 346.125504,488.787295 C346.991135,486.304883 348.10584,483.209443 349.248106,479.618126 C350.704776,475.038086 350.942621,473.145474 350.939558,471.224584 C350.939558,470.40654 350.899747,469.596575 350.899747,468.562405 C350.899747,468.228117 350.903831,467.869591 350.914039,467.479758 C350.984473,464.959979 351.447913,461.360582 351.837855,457.990441 C351.910331,458.192427 351.981787,458.393403 352.060388,458.598419 C352.537098,459.844675 353.086284,461.136377 353.432332,462.331127 C354.531725,466.109281 354.593993,472.147662 354.597056,475.217854 L354.597056,475.229973 C354.601139,476.843844 353.951915,478.869767 353.161822,480.698753 C352.374792,482.532788 351.461183,484.173927 350.962016,485.109124 C349.069468,488.652974 347.317789,493.031028 346.933971,497.369694 C346.799226,498.89772 346.736958,500.259108 346.736958,501.512433 C346.735937,506.363135 347.679149,509.584816 348.962284,514.601147 C350.823188,521.880734 352.227798,529.669326 352.503412,533.550493 C352.515661,533.719152 352.521786,533.887811 352.521786,534.058489 C352.54016,536.870139 350.867082,540.235231 350.865041,547.451192 C350.862999,552.029212 351.27744,554.402551 352.032827,558.147378 C352.786171,561.895234 353.884543,567.056994 355.278945,577.362336 C355.380003,578.120795 355.423897,578.778261 355.423897,579.349882 C355.422876,580.573919 355.227905,581.405093 354.981894,582.0363 C354.733842,582.668517 354.428625,583.103798 354.158115,583.551197 C353.885564,584.007686 353.267985,584.734837 352.717778,585.401392 C352.440122,585.736689 352.179821,586.060877 351.9726,586.355777 C351.870521,586.503227 351.780691,586.643608 351.709235,586.781969 C351.63778,586.924369 351.576533,587.05869 351.559179,587.250577 C351.557137,587.285924 351.535701,587.384898 351.503036,587.511139 C351.471391,587.6394 351.43158,587.79695 351.430559,587.994896 C351.428518,588.165575 351.469349,588.37968 351.594907,588.569547 C351.785795,588.859398 352.10122,589.032096 352.495245,589.135109 C352.895396,589.240142 353.410896,589.291649 354.126471,589.292659 C355.623972,589.292659 356.749906,589.347195 357.604309,589.347195 C358.019771,589.347195 358.371944,589.335076 358.684307,589.290639 C358.947671,589.251251 359.186536,589.176516 359.408048,589.053305 C359.62956,589.245192 359.981733,589.407791 360.419653,589.399711 C360.616666,589.399711 360.831032,589.373453 361.070918,589.318917 C361.492505,589.223983 361.876323,589.005838 362.126417,588.661451 C362.377532,588.317065 362.480632,587.889864 362.479611,587.423275 L362.477569,587.315212 L362.475528,587.103127 C362.474507,586.743591 362.511256,586.430512 362.599044,585.643776 C362.614356,585.496326 362.621501,585.357965 362.621501,585.226674 C362.621501,584.864108 362.566378,584.565169 362.520443,584.300567 C362.474507,584.034955 362.434696,583.80166 362.434696,583.51383 C362.434696,583.320933 362.45205,583.099758 362.50411,582.827076 C362.52963,582.686696 362.541879,582.545305 362.541879,582.406945 C362.532692,581.717162 362.288723,581.137461 362.071294,580.163887 C361.849782,579.191323 361.626229,577.815796 361.626229,575.634343 C361.626229,572.639896 362.051899,568.134591 363.506528,561.151924 C364.225165,557.703008 364.485467,555.095364 364.485467,552.992687 C364.484446,548.880245 363.485091,546.725051 363.072691,544.183053 C362.743996,542.17127 362.592919,540.613955 362.592919,539.121276 C362.592919,536.674212 363.001236,534.371568 363.739268,530.541907 C365.22452,522.82704 366.149358,516.418014 366.150379,511.665276 C366.148337,509.147516 365.876807,507.117554 365.272498,505.55115 C365.422554,505.495603 365.587922,505.436017 365.766561,505.383501 C366.050341,505.295637 366.352496,505.234031 366.50051,505.237061 C366.700586,505.232011 367.155859,505.347143 367.516198,505.474395 C367.590716,505.500653 367.661151,505.524891 367.728523,505.55115 C367.123193,507.117554 366.851663,509.146506 366.849621,511.665276 C366.850642,516.418014 367.77548,522.82704 369.260732,530.541907 C369.998764,534.371568 370.407081,536.674212 370.407081,539.121276 C370.407081,540.613955 370.256004,542.17127 369.926288,544.183053 C369.514909,546.725051 368.515554,548.880245 368.514533,552.992687 C368.514533,555.095364 368.773814,557.703008 369.493472,561.151924 C370.94708,568.134591 371.373771,572.639896 371.373771,575.634343 C371.373771,577.815796 371.150218,579.191323 370.928706,580.163887 C370.711277,581.137461 370.467308,581.717162 370.458121,582.406945 C370.4571,582.546315 370.47037,582.686696 370.49589,582.827076 C370.54795,583.099758 370.565304,583.320933 370.565304,583.51383 C370.565304,583.80166 370.525493,584.034955 370.478537,584.300567 C370.432601,584.565169 370.377478,584.864108 370.377478,585.226674 C370.377478,585.357965 370.385644,585.496326 370.400956,585.643776 C370.488744,586.429502 370.525493,586.743591 370.524472,587.103127 L370.52141,587.315212 L370.52141,587.313193 L370.519368,587.423275 C370.518347,587.889864 370.622468,588.317065 370.873583,588.661451 C371.123677,589.005838 371.507495,589.223983 371.929082,589.317907 C372.168968,589.373453 372.383334,589.399711 372.580347,589.399711 C373.018267,589.407791 373.369419,589.245192 373.591952,589.053305 C373.813464,589.176516 374.051308,589.251251 374.315693,589.290639 C374.628056,589.336086 374.980229,589.347195 375.395691,589.347195 C376.250094,589.347195 377.376028,589.292659 378.873529,589.292659 C379.82797,589.288619 380.425133,589.206814 380.870198,589.006848 C381.09171,588.906865 381.280557,588.760425 381.404072,588.569547 C381.530651,588.37867 381.571482,588.165575 381.569441,587.994896 C381.56842,587.79695 381.528609,587.6394 381.496964,587.511139 C381.464299,587.384898 381.442863,587.286934 381.441842,587.250577 C381.423467,587.05869 381.361199,586.924369 381.290765,586.781969 C381.04067,586.308311 380.566002,585.746789 380.07296,585.147899 C379.58298,584.559109 379.078708,583.95012 378.841885,583.551197 C378.571375,583.103798 378.266158,582.668517 378.018106,582.0363 C377.772095,581.405093 377.576103,580.573919 377.576103,579.349882 C377.576103,578.778261 377.618976,578.120795 377.721055,577.362336 C379.115457,567.056994 380.212808,561.895234 380.967173,558.147378 C381.72256,554.402551 382.137001,552.029212 382.134959,547.451192 C382.131897,540.235231 380.45984,536.870139 380.478214,534.058489 C380.478214,533.887811 380.484339,533.719152 380.496588,533.550493 C380.771181,529.669326 382.175791,521.880734 384.037716,514.601147 C385.31983,509.584816 386.264063,506.363135 386.263042,501.512433 C386.263042,500.259108 386.200774,498.89772 386.066029,497.369694 C385.682211,493.031028 383.930532,488.652974 382.037984,485.109124 C381.537796,484.173927 380.625208,482.532788 379.837157,480.698753 C379.048085,478.869767 378.398861,476.843844 378.402944,475.229973 L378.402944,475.219874 L378.402944,475.217854 C378.406007,472.147662 378.468275,466.109281 379.567668,462.331127 C379.913716,461.136377 380.462902,459.844675 380.939612,458.598419 C381.018213,458.393403 381.089669,458.192427 381.162145,457.990441 C381.552087,461.360582 382.015527,464.959979 382.084941,467.479758 C382.096169,467.869591 382.100253,468.228117 382.100253,468.562405 C382.100253,469.596575 382.060442,470.40654 382.060442,471.224584 C382.057379,473.145474 382.295224,475.039096 383.752915,479.618126 C384.893139,483.209443 386.009886,486.304883 386.874496,488.787295 C387.740128,491.262637 388.351582,493.14717 388.484285,494.214667 C388.592489,495.06806 388.626175,495.558886 388.626175,495.912362 C388.626175,496.212312 388.602697,496.421368 388.573094,496.708188 C388.543491,496.993999 388.506743,497.346465 388.492452,497.877689 C388.468973,498.648267 388.340354,499.186561 388.120883,499.716775 C387.900392,500.245979 387.572718,500.774173 387.152152,501.460927 C386.643797,502.287051 386.390641,503.167711 386.392683,504.123106 C386.392683,504.889644 386.548864,505.702639 386.831623,506.607538 C386.996991,507.138762 387.066405,507.446791 387.147048,507.90732 C387.228711,508.367849 387.315478,508.977848 387.500242,510.045345 C387.555365,510.343275 387.687047,510.622016 387.88508,510.870459 C387.985118,510.992661 388.10353,511.107793 388.252565,511.199697 C388.40058,511.290591 388.587385,511.361286 388.798689,511.361286 C389.17332,511.364316 389.511202,511.126982 389.718423,510.808854 C389.751088,510.758357 389.772525,510.705841 389.798044,510.653324 C389.770483,510.736138 389.739859,510.815923 389.70209,510.889648 C389.6633,510.974482 389.485682,511.208786 389.256004,511.463289 C388.907914,511.853123 388.43937,512.329811 388.046365,512.791349 C387.849353,513.022624 387.670714,513.251878 387.528824,513.480123 C387.393059,513.712407 387.273626,513.935602 387.26546,514.245651 C387.264439,514.388051 387.303229,514.5557 387.401225,514.69608 C387.485951,514.824342 387.617633,514.927355 387.748294,514.978861 C387.878956,515.031378 388.00043,515.044507 388.105571,515.044507 C388.314834,515.042487 388.480202,514.99805 388.629238,514.962702 C388.77419,514.924325 388.901789,514.893017 388.970182,514.885947 L388.972224,514.885947 L388.99264,514.884938 L389.142696,514.910186 C389.224359,514.928365 389.350938,514.961692 389.515285,514.961692 C389.670445,514.962702 389.850105,514.926345 390.019556,514.84858 C390.51362,514.623365 390.988288,514.341594 391.368022,514.091131 C391.55891,513.9659 391.7253,513.848748 391.858002,513.748764 C391.993768,513.646761 392.087681,513.571017 392.165261,513.498301 C393.303444,512.419694 394.001666,511.290591 394.372213,509.68177 L393.874067,509.566638 L394.372213,509.68177 C394.785634,507.90732 395,505.976331 395,504.228139" id="profile_girl_icon"></path>
                                                </g>
                                            </g>
                                        </svg>