<?xml version="1.0" encoding="utf-8"?>
<!-- Generator: Adobe Illustrator 23.0.3, SVG Export Plug-In . SVG Version: 6.00 Build 0)  -->
<svg version="1.1" id="Layer_1" xmlns="http://www.w3.org/2000/svg" xmlns:xlink="http://www.w3.org/1999/xlink" x="0px" y="0px"
	 viewBox="0 0 55 188" style="enable-background:new 0 0 55 188;" xml:space="preserve" width="640" height="480">
<style type="text/css" >
	.st0{fill:none;stroke:#EAEAEA;stroke-miterlimit:10;}
	 </style>
<g>
	<g transform="translate(-338.000000, -404.000000)">
		<path id="profile_man_img" class="st0" d="M392.3,476.7c-0.6-1.3-1.1-4.3-0.7-6.3c0.3-2,0.7-12.2-0.3-14.9
			c-1.1-2.7,0.2-7.7-2.7-12.6s-9.5-4.7-9.5-4.7s-6.2-2.1-7.1-3.4c-0.9-1.3-0.4-6.9-0.4-6.9c1.7-1.3,1.9-5.1,1.9-5.1s0.2,0.7,0.8,0.3
			s0.9-5,0.7-5.4c-0.2-0.4-0.9-0.3-0.9-0.3s1.1-5.9-0.7-8.9c-1.8-3-5.9-3.5-7.6-3.5s-5.9,0.4-7.6,3.5c-1.8,3-0.7,8.9-0.7,8.9
			s-0.7-0.2-0.9,0.3s0.1,4.9,0.7,5.4c0.7,0.4,0.8-0.3,0.8-0.3s0.2,3.8,1.9,5.1c0,0,0.4,5.6-0.4,6.9c-0.9,1.3-7.1,3.4-7.1,3.4
			s-6.6-0.2-9.5,4.7c-2.9,4.9-1.6,9.9-2.7,12.6c-1.1,2.7-0.7,12.9-0.3,14.9c0.3,2-0.2,5.1-0.7,6.3c-0.6,1.3,1.1,22.5,0.9,25.5
			c-0.2,2.9-1.1,10.7-0.8,11.4s2.6,6.7,5,7c0,0,1.7,1.3,2.4,0.9c0.6-0.4-0.2-1.3-0.2-1.3s0.5,0.1,0.8-0.3c0.3-0.3-2.3-2.9-2.3-2.9
			s1.3,0.6,1.7,0.1c0.4-0.5-3.3-2.6-4-4.1c-0.7-1.5,0.2-2.5,0.2-2.5l1.1,0.5c0,0,1.1,3.5,1.8,3.5c0.7,0.1,1.2,0.1,0.6-4.1
			c0,0,0.9-3.1,0.2-4.5c-0.7-1.3-1.5-1.8-1.5-3.2c0-1.5,2.1-9.2,2.8-13.4s-0.6-12.6,0.1-14.2s1.5-5.4,1.5-8.2
			c0.1-2.7,0.7-6.3,1.4-7.3s-0.3,5.2,1.1,9.1c1.5,3.9,0.4,10.6-0.2,13.6c-0.7,2.9-3,19.2-3.2,25.2c-0.2,6,1.5,28,1.2,31.2
			c-0.2,3.2-1.7,7.7-1.7,16.8s1.5,9.9,2.7,13.7c0.8,2.6,1.7,7.9,2.1,11.7l0.1,0.7c0,0,0.6,1.8,0,2.3c-0.6,0.5-1,1.2-1.3,1.8
			c-0.3,0.7-2.6,2.4-3,2.8c-0.4,0.4-1.4,1.3-0.9,2.5h11.5c0,0,0.2,0.1,0.4-1.2s-0.6-3-0.5-4c0.1-1,0.3-1.9,0.2-3
			c-0.2-1.5-0.4-3.1-0.4-4c-0.2-3.4-0.3-9.8,0.5-13.3c1.1-4.8,1-12.1-0.2-15.3c-1.1-3.2,0.5-5,1.7-8.9c1.1-3.9,1.8-13.3,1.8-17.5
			c0-4.1,1.3-7.1,2-9.4c0.7-2.4,0.6-5.9,0.6-5.9l0.5-0.3l0.5,0.3c0,0-0.1,3.5,0.6,5.9s2,5.3,2,9.4c0,4.1,0.6,13.6,1.8,17.5
			c1.1,3.9,2.8,5.6,1.7,8.9c-1.1,3.2-1.2,10.5-0.2,15.3c1.1,4.4,0.6,12.9,0.4,15.1c-0.1,0.8-0.2,1.5-0.2,2.3c-0.2,1.2,0.1,1.9,0.2,3
			c0.1,1-0.7,2.7-0.5,4s0.4,1.2,0.4,1.2h11.5c0.4-1.2-0.5-2.1-0.9-2.5c-0.4-0.4-2.7-2.1-3-2.8c-0.3-0.7-0.7-1.3-1.3-1.8
			c-0.6-0.5,0-2.3,0-2.3l0.3-2.8c0.5-3.5,1.1-7.4,1.9-9.5c1.2-3.8,2.7-4.6,2.7-13.7s-1.5-13.6-1.7-16.8c-0.2-3.2,1.5-25.2,1.2-31.2
			s-2.5-22.3-3.2-25.2c-0.7-2.9-1.7-9.7-0.2-13.6c1.5-3.9,0.5-9.9,1.1-9.1c0.7,0.9,1.3,4.6,1.4,7.3s0.9,6.5,1.5,8.2
			c0.7,1.6-0.6,9.9,0.1,14.2c0.7,4.2,2.8,12,2.8,13.4c0,1.5-0.8,1.9-1.5,3.2c-0.7,1.3,0.2,4.5,0.2,4.5c-0.6,4.1-0.2,4.1,0.6,4.1
			c0.7-0.1,1.8-3.5,1.8-3.5l1.1-0.5c0,0,0.9,1,0.2,2.5c-0.7,1.5-4.4,3.5-4,4.1c0.4,0.5,1.7-0.1,1.7-0.1s-2.6,2.6-2.3,2.9
			c0.3,0.3,0.8,0.3,0.8,0.3s-0.7,0.9-0.2,1.3c0.6,0.4,2.4-0.9,2.4-0.9c2.4-0.3,4.6-6.3,5-7c0.3-0.7-0.6-8.5-0.8-11.4
			C391.2,499.3,392.9,478,392.3,476.7z"/>
	</g>
</g>
</svg>
