<svg xmlns="http://www.w3.org/2000/svg" width="105" height="105"><linearGradient id="a" gradientUnits="userSpaceOnUse" x1="-.916" y1="12.582" x2="107.088" y2="11.915"><stop offset="0" stop-color="#00cfff"/><stop offset=".055" stop-color="#03c9fc"/><stop offset=".13" stop-color="#0ab8f2"/><stop offset=".215" stop-color="#179ce3"/><stop offset=".308" stop-color="#2875ce"/><stop offset=".402" stop-color="#3d46b4"/><stop offset=".509" stop-color="#4b3eb1"/><stop offset=".711" stop-color="#702aa9"/><stop offset=".761" stop-color="#7a24a7"/><stop offset="1" stop-color="#d441c3"/></linearGradient><circle fill="url(#a)" cx="12.5" cy="12.5" r="12.5"><animate fill="remove" restart="always" additive="replace" accumulate="none" repeatCount="indefinite" calcMode="linear" values="1;.2;1" dur="1s" begin="0s" attributeName="fill-opacity"/></circle><linearGradient id="b" gradientUnits="userSpaceOnUse" x1="-.669" y1="52.581" x2="107.335" y2="51.914"><stop offset="0" stop-color="#00cfff"/><stop offset=".055" stop-color="#03c9fc"/><stop offset=".13" stop-color="#0ab8f2"/><stop offset=".215" stop-color="#179ce3"/><stop offset=".308" stop-color="#2875ce"/><stop offset=".402" stop-color="#3d46b4"/><stop offset=".509" stop-color="#4b3eb1"/><stop offset=".711" stop-color="#702aa9"/><stop offset=".761" stop-color="#7a24a7"/><stop offset="1" stop-color="#d441c3"/></linearGradient><circle fill="url(#b)" cx="12.5" cy="52.5" r="12.5"><animate fill="remove" restart="always" additive="replace" accumulate="none" repeatCount="indefinite" calcMode="linear" values="1;.2;1" dur="1s" begin="100ms" attributeName="fill-opacity"/></circle><linearGradient id="c" gradientUnits="userSpaceOnUse" x1="-.914" y1="12.83" x2="107.086" y2="12.163"><stop offset="0" stop-color="#00cfff"/><stop offset=".055" stop-color="#03c9fc"/><stop offset=".13" stop-color="#0ab8f2"/><stop offset=".215" stop-color="#179ce3"/><stop offset=".308" stop-color="#2875ce"/><stop offset=".402" stop-color="#3d46b4"/><stop offset=".509" stop-color="#4b3eb1"/><stop offset=".711" stop-color="#702aa9"/><stop offset=".761" stop-color="#7a24a7"/><stop offset="1" stop-color="#d441c3"/></linearGradient><circle fill="url(#c)" cx="52.5" cy="12.5" r="12.5"><animate fill="remove" restart="always" additive="replace" accumulate="none" repeatCount="indefinite" calcMode="linear" values="1;.2;1" dur="1s" begin="300ms" attributeName="fill-opacity"/></circle><linearGradient id="d" gradientUnits="userSpaceOnUse" x1="-.668" y1="52.829" x2="107.334" y2="52.162"><stop offset="0" stop-color="#00cfff"/><stop offset=".055" stop-color="#03c9fc"/><stop offset=".13" stop-color="#0ab8f2"/><stop offset=".215" stop-color="#179ce3"/><stop offset=".308" stop-color="#2875ce"/><stop offset=".402" stop-color="#3d46b4"/><stop offset=".509" stop-color="#4b3eb1"/><stop offset=".711" stop-color="#702aa9"/><stop offset=".761" stop-color="#7a24a7"/><stop offset="1" stop-color="#d441c3"/></linearGradient><circle fill="url(#d)" cx="52.5" cy="52.5" r="12.5"><animate fill="remove" restart="always" additive="replace" accumulate="none" repeatCount="indefinite" calcMode="linear" values="1;.2;1" dur="1s" begin="600ms" attributeName="fill-opacity"/></circle><linearGradient id="e" gradientUnits="userSpaceOnUse" x1="-.913" y1="13.077" x2="107.087" y2="12.41"><stop offset="0" stop-color="#00cfff"/><stop offset=".055" stop-color="#03c9fc"/><stop offset=".13" stop-color="#0ab8f2"/><stop offset=".215" stop-color="#179ce3"/><stop offset=".308" stop-color="#2875ce"/><stop offset=".402" stop-color="#3d46b4"/><stop offset=".509" stop-color="#4b3eb1"/><stop offset=".711" stop-color="#702aa9"/><stop offset=".761" stop-color="#7a24a7"/><stop offset="1" stop-color="#d441c3"/></linearGradient><circle fill="url(#e)" cx="92.5" cy="12.5" r="12.5"><animate fill="remove" restart="always" additive="replace" accumulate="none" repeatCount="indefinite" calcMode="linear" values="1;.2;1" dur="1s" begin="800ms" attributeName="fill-opacity"/></circle><linearGradient id="f" gradientUnits="userSpaceOnUse" x1="-.666" y1="53.075" x2="107.334" y2="52.408"><stop offset="0" stop-color="#00cfff"/><stop offset=".055" stop-color="#03c9fc"/><stop offset=".13" stop-color="#0ab8f2"/><stop offset=".215" stop-color="#179ce3"/><stop offset=".308" stop-color="#2875ce"/><stop offset=".402" stop-color="#3d46b4"/><stop offset=".509" stop-color="#4b3eb1"/><stop offset=".711" stop-color="#702aa9"/><stop offset=".761" stop-color="#7a24a7"/><stop offset="1" stop-color="#d441c3"/></linearGradient><circle fill="url(#f)" cx="92.5" cy="52.5" r="12.5"><animate fill="remove" restart="always" additive="replace" accumulate="none" repeatCount="indefinite" calcMode="linear" values="1;.2;1" dur="1s" begin="400ms" attributeName="fill-opacity"/></circle><linearGradient id="g" gradientUnits="userSpaceOnUse" x1="-.422" y1="92.579" x2="107.582" y2="91.912"><stop offset="0" stop-color="#00cfff"/><stop offset=".055" stop-color="#03c9fc"/><stop offset=".13" stop-color="#0ab8f2"/><stop offset=".215" stop-color="#179ce3"/><stop offset=".308" stop-color="#2875ce"/><stop offset=".402" stop-color="#3d46b4"/><stop offset=".509" stop-color="#4b3eb1"/><stop offset=".711" stop-color="#702aa9"/><stop offset=".761" stop-color="#7a24a7"/><stop offset="1" stop-color="#d441c3"/></linearGradient><circle fill="url(#g)" cx="12.5" cy="92.5" r="12.5"><animate fill="remove" restart="always" additive="replace" accumulate="none" repeatCount="indefinite" calcMode="linear" values="1;.2;1" dur="1s" begin="700ms" attributeName="fill-opacity"/></circle><linearGradient id="h" gradientUnits="userSpaceOnUse" x1="-.418" y1="92.826" x2="107.579" y2="92.159"><stop offset="0" stop-color="#00cfff"/><stop offset=".055" stop-color="#03c9fc"/><stop offset=".13" stop-color="#0ab8f2"/><stop offset=".215" stop-color="#179ce3"/><stop offset=".308" stop-color="#2875ce"/><stop offset=".402" stop-color="#3d46b4"/><stop offset=".509" stop-color="#4b3eb1"/><stop offset=".711" stop-color="#702aa9"/><stop offset=".761" stop-color="#7a24a7"/><stop offset="1" stop-color="#d441c3"/></linearGradient><circle fill="url(#h)" cx="52.5" cy="92.5" r="12.5"><animate fill="remove" restart="always" additive="replace" accumulate="none" repeatCount="indefinite" calcMode="linear" values="1;.2;1" dur="1s" begin="500ms" attributeName="fill-opacity"/></circle><linearGradient id="i" gradientUnits="userSpaceOnUse" x1="-.419" y1="93.073" x2="107.581" y2="92.406"><stop offset="0" stop-color="#00cfff"/><stop offset=".055" stop-color="#03c9fc"/><stop offset=".13" stop-color="#0ab8f2"/><stop offset=".215" stop-color="#179ce3"/><stop offset=".308" stop-color="#2875ce"/><stop offset=".402" stop-color="#3d46b4"/><stop offset=".509" stop-color="#4b3eb1"/><stop offset=".711" stop-color="#702aa9"/><stop offset=".761" stop-color="#7a24a7"/><stop offset="1" stop-color="#d441c3"/></linearGradient><circle fill="url(#i)" cx="92.5" cy="92.5" r="12.5"><animate fill="remove" restart="always" additive="replace" accumulate="none" repeatCount="indefinite" calcMode="linear" values="1;.2;1" dur="1s" begin="200ms" attributeName="fill-opacity"/></circle><linearGradient id="j" gradientUnits="userSpaceOnUse" x1="437.878" y1="286.677" x2="538.001" y2="260.802"><stop offset="0" stop-color="#00cfff"/><stop offset=".112" stop-color="#03c9fc"/><stop offset=".261" stop-color="#0bb8f4"/><stop offset=".432" stop-color="#189ce7"/><stop offset=".62" stop-color="#2a75d4"/><stop offset=".818" stop-color="#4143bd"/><stop offset="1" stop-color="#590fa4"/></linearGradient><path fill-rule="evenodd" clip-rule="evenodd" fill="url(#j)" d="M513.019 278.08c-.725-.051-1.46-.133-2.161-.313-1.455-.375-2.081-1.221-2.168-2.723-.092-1.566-.1-3.147-.325-4.694-.552-3.788-2.687-6.351-6.269-7.711-2.396-.91-4.904-1.235-7.434-1.377-3.536-.199-7.07-.176-10.593.293-2.114.281-4.167.756-6.058 1.779-2.225 1.204-3.699 3.026-4.418 5.455-.723 2.442-.773 4.919-.415 7.425.559 3.91 2.63 6.602 6.353 8.008 2.33.879 4.763 1.209 7.221 1.359 3.607.221 7.217.225 10.803-.32 1.925-.291 3.811-.748 5.466-1.854.294-.195.505-.211.797.031.905.75 1.966 1.207 3.093 1.516 2.719.744 5.502.768 8.289.736.046 0 .092-.043.127-.063v-7.537c-.811.002-1.562.041-2.308-.01zm-15.617-.953c-1.504.691-3.117.844-4.736.951-.605.037-1.215.004-1.822.004-2.054.021-4.093-.063-6.071-.725-2.856-.957-3.335-3.49-2.599-5.57.434-1.225 1.438-1.863 2.602-2.283 1.493-.541 3.056-.689 4.624-.734 2.266-.063 4.535-.07 6.751.521 1.117.298 2.167.736 2.871 1.722 1.485 2.075.691 5.05-1.62 6.114zm-42.293-10.047c2.803-5.181 6.684-5.938 9.986-5.938h4.449v7.609h-1.693c-1.763 0-3.797.118-4.906 2.251l-1.221 2.35s-3.412 6.65-3.938 7.457c-2.732 4.186-6.278 4.832-9.331 4.832h-4.449v-7.609h1.694c1.763 0 3.796-.117 4.905-2.25 0-.001 4.218-8.174 4.504-8.702z"/><linearGradient id="k" gradientUnits="userSpaceOnUse" x1="506.848" y1="262.022" x2="576.851" y2="278.913"><stop offset="0" stop-color="#0065ff"/><stop offset=".301" stop-color="#590fa4"/><stop offset=".48" stop-color="#8617b0"/><stop offset=".722" stop-color="#bd21be"/><stop offset=".902" stop-color="#df27c7"/><stop offset="1" stop-color="#ec29ca"/></linearGradient><path fill-rule="evenodd" clip-rule="evenodd" fill="url(#k)" d="M579.184 278.08c-.726-.051-1.46-.133-2.161-.313-1.456-.375-2.083-1.221-2.17-2.723-.091-1.566-.099-3.146-.324-4.693-.553-3.787-2.687-6.352-6.269-7.712-2.395-.91-4.903-1.234-7.434-1.377-3.536-.199-7.07-.176-10.593.292-2.114.281-4.167.757-6.058 1.78-2.225 1.204-3.699 3.025-4.418 5.454-.724 2.442-.774 4.92-.416 7.424.559 3.912 2.63 6.604 6.353 8.008 2.33.881 4.762 1.211 7.22 1.361 3.607.221 7.218.223 10.803-.32 1.926-.289 3.812-.75 5.466-1.852.295-.195.504-.215.798.029.905.748 1.965 1.207 3.092 1.516 2.719.744 5.502.768 8.289.736.046 0 .091-.043.129-.063v-7.537c-.81.002-1.562.041-2.307-.01zm-15.626-.951c-1.505.691-3.118.842-4.737.949-.604.037-1.214.006-1.821.006-2.055.02-4.094-.064-6.071-.73-2.857-.959-3.325-3.498-2.589-5.575.428-1.205 1.416-1.846 2.557-2.263 1.507-.55 3.089-.704 4.676-.747 2.266-.061 4.536-.068 6.751.524 1.116.299 2.164.739 2.868 1.727 1.479 2.079.682 5.044-1.634 6.109zm-48.941-15.987c3.011.02 5.965.056 8.86.832 3.563.956 5.845 3.142 6.397 6.835.271 1.807.225 3.661.324 5.494.026.48.01.971.105 1.438.23 1.135 1 1.816 2.092 2.021 1.044.197 2.117.246 3.178.336.406.035.817.006 1.266.006v7.535c-.018.01-.063.053-.108.053-2.896.045-5.784-.02-8.605-.758-2.251-.592-4.218-1.645-5.448-3.736-.897-1.525-1.263-3.207-1.346-4.949-.07-1.498-.059-3-.111-4.5-.049-1.413-.775-2.388-2.175-2.65-1.216-.228-2.474-.242-3.713-.344-.229-.02-.46-.003-.716-.003v-7.61zm16.162-7.15a5.05 5.05 0 1 1-10.102 0 5.051 5.051 0 0 1 10.102 0z"/></svg>