<?xml version="1.0" encoding="utf-8"?>
<!-- Generator: Adobe Illustrator 23.0.3, SVG Export Plug-In . SVG Version: 6.00 Build 0)  -->
<svg version="1.1" id="Layer_1" xmlns="http://www.w3.org/2000/svg" xmlns:xlink="http://www.w3.org/1999/xlink" x="0px" y="0px"
	 viewBox="0 0 28 188" style="enable-background:new 0 0 28 188;" xml:space="preserve" width="640" height="480">
<style type="text/css">
	.st0{fill:none;stroke:#EAEAEA;stroke-miterlimit:10;}
</style>
<g>
	<g transform="translate(-585.000000, -404.000000)">
		<path class="st0" d="M604.9,429.3l0.5-3.6v-3l1.7-0.3c0,0,0.2-0.5-0.4-1.6c-0.5-1.1-1.7-3.8-1.7-3.8s0.6-0.6,0.3-2.8
			c-0.3-2.2-0.5-4.1-0.5-4.1s0.5-0.8,0.1-1.9c-0.4-0.9-3.1-4-10.4-3.2c-7.3,0.8-7.9,7.1-8,9c-0.1,1.9-0.3,3.2,1.3,6.2
			c1.5,3,3.1,7.1,3.1,9.1s-1.4,4.3-2.6,7.7s-2.3,6.1-2,10.8c0.3,4.6,5.4,19.6,5.9,22.4s1.1,7.7-0.8,11.3c-2,3.5-5,9.3-4.4,14.5
			c0.5,5.3,3.5,10.2,3.5,10.2s1,19.4,1.2,22.6c0.2,3.2,0.2,5.5-1.1,8.6c-1.4,3.1-4.7,8.2-4.5,12.8c0.2,4.6,3.5,17.8,3.8,21.6
			c0.2,3.7,0.8,7.7,0.1,9.7c-0.8,2-1.6,4.3-1.6,4.3s-2.4,4.9,0.6,5.1c3,0.2,23.1-0.1,23.1-0.1s0.5-0.6-0.2-1.4
			c-0.6-0.8-1.6-2.3-3.4-1.9c-1.9,0.4-3.3,0-5.3-1.3c-2-1.4-7-5.3-7.2-6.4s0.8-25.7,1.7-30.5c0.9-4.7,3-6.9,3.4-8.6s0.4-5.7,1.1-8.2
			c0.7-2.5,3-8.2,3.8-13.6c0.8-5.4,1.2-12.3,1.2-12.3s0.9-10,1.5-14.5s1.9-14.1,2.2-19.3c0.3-5.2-0.1-13.7,0.4-15.5
			c0.5-1.8,1.6-3.4-1.9-9.1c-3.5-5.8-5.3-7.3-6.9-8.9c-1.7-1.6-3.4-2.8-3.2-4.2c0.2-1.4,1.7-5.5,1.7-5.5S604.4,430.6,604.9,429.3z"
			/>
	</g>
</g>
</svg>
